<?xml version="1.0" encoding="UTF-8" standalone="no"?>
<svg width="32" height="32" viewBox="0 0 32 32" fill="none" xmlns="http://www.w3.org/2000/svg">
  <rect width="32" height="32" rx="8" fill="#7f00fa" />
  <path d="M9 10C9 9.44772 9.44772 9 10 9H22C22.5523 9 23 9.44772 23 10V12C23 12.5523 22.5523 13 22 13H10C9.44772 13 9 12.5523 9 12V10Z" fill="#fb0082" />
  <path d="M9 16C9 15.4477 9.44772 15 10 15H22C22.5523 15 23 15.4477 23 16V18C23 18.5523 22.5523 19 22 19H10C9.44772 19 9 18.5523 9 18V16Z" fill="#0ff0b3" />
  <path d="M9 22C9 21.4477 9.44772 21 10 21H22C22.5523 21 23 21.4477 23 22V24C23 24.5523 22.5523 25 22 25H10C9.44772 25 9 24.5523 9 24V22Z" fill="white" />
</svg>
